<?xml version="1.0" standalone="no"?><!DOCTYPE svg PUBLIC "-//W3C//DTD SVG 1.1//EN" "http://www.w3.org/Graphics/SVG/1.1/DTD/svg11.dtd"><svg t="1604321217083" class="icon" viewBox="0 0 1024 1024" version="1.1" xmlns="http://www.w3.org/2000/svg" p-id="1787" xmlns:xlink="http://www.w3.org/1999/xlink" width="200" height="200"><defs><style type="text/css"></style></defs><path d="M413.9 924c-24.1 0-48.8-3.3-73.5-9.9-43.6-11.6-87-33.3-125.5-62.7-39.5-30.2-72.8-67.6-96.2-108.3C93.3 699.2 80 652 80 606.7c0-44.5 8.7-87.8 25.9-128.5 16.6-39.3 40.4-74.6 70.7-104.9s65.6-54.1 104.9-70.7c40.7-17.2 83.9-25.9 128.5-25.9h500c16.6 0 30 13.4 30 30 0 74.8-29.1 145.1-82 198s-123.2 82-198 82H455c-52.4 0-95 42.6-95 95s42.6 95 95 95h125c11.9 0 22.7 7.1 27.5 18s2.6 23.7-5.6 32.4c-7 7.5-69.8 73.7-124.1 88.5-20.3 5.6-41.8 8.4-63.9 8.4zM410 336.7c-148.9 0-270 121.1-270 270 0 69 42.7 144.5 111.4 197 67.3 51.4 146.1 71.6 210.7 54 11.2-3 24.9-11 38.8-21.1H455c-85.5 0-155-69.5-155-155s69.5-155 155-155h205c111.1 0 203.3-82.8 218-190l-468 0.1z" p-id="1788"></path><path d="M792 320c-16.6 0-30-13.4-30-30 0-14.3-15.7-30.7-42-43.9-33.2-16.6-79.9-26.1-128-26.1H292c-0.8 0-1.6 0-2.4-0.1-47.7-2.2-85.9-41.7-85.9-89.9 0-16.6 13.4-30 30-30s30 13.4 30 30c0 16.5 13.5 30 30 30H592c58 0 113 11.5 154.8 32.5 48.5 24.2 75.2 58.9 75.2 97.5 0 16.6-13.4 30-30 30z" p-id="1789"></path><path d="M759 400m-30 0a30 30 0 1 0 60 0 30 30 0 1 0-60 0Z" p-id="1790"></path><path d="M508 661c-41.4 0-75-33.6-75-75v-40c0-8.3 6.7-15 15-15s15 6.7 15 15v40c0 24.8 20.2 45 45 45 8.3 0 15 6.7 15 15s-6.7 15-15 15zM426.2 690.8c-30.6 0-59.5-18.9-70.6-49.4-0.1-0.3-0.2-0.6-0.3-1L344.8 604c-2.3-8 2.3-16.3 10.2-18.6 8-2.3 16.3 2.3 18.6 10.2l10.4 35.9c8.7 23 34.3 34.9 57.5 26.5 7.8-2.8 16.4 1.2 19.2 9 2.8 7.8-1.2 16.4-9 19.2-8.4 3.1-17 4.6-25.5 4.6zM588 661c-41.4 0-75-33.6-75-75v-40c0-8.3 6.7-15 15-15s15 6.7 15 15v40c0 24.8 20.2 45 45 45 8.3 0 15 6.7 15 15s-6.7 15-15 15zM668 661c-41.4 0-75-33.6-75-75v-40c0-8.3 6.7-15 15-15s15 6.7 15 15v40c0 24.8 20.2 45 45 45 8.3 0 15 6.7 15 15s-6.7 15-15 15z" p-id="1791"></path><path d="M561.9 560.9c-3.4 0-6.8-1.1-9.6-3.5C514 525.6 492 478.8 492 429c0-52.3 23.8-100.6 65.4-132.5 6.6-5 16-3.8 21 2.8s3.8 16-2.8 21c-34 26.1-53.6 65.8-53.6 108.7 0 40.8 18 79.3 49.5 105.4 6.4 5.3 7.2 14.8 1.9 21.1-2.9 3.6-7.2 5.4-11.5 5.4zM431.8 560.4c-2.1 0-4.2-0.4-6.3-1.4-45.3-20.9-78.6-60.4-91.5-108.5-13.5-50.5-3-103.4 28.8-144.9 5-6.6 14.5-7.8 21-2.8 6.6 5 7.8 14.5 2.8 21-26.2 34.1-34.8 77.5-23.7 118.9 10.6 39.5 37.9 71.9 75.1 89 7.5 3.5 10.8 12.4 7.3 19.9-2.4 5.6-7.9 8.8-13.5 8.8zM340.5 605.9c-0.8 0-1.7-0.1-2.6-0.2-35.3-6.1-68.2-23.6-92.7-49.3-5.7-6-5.5-15.5 0.5-21.2s15.5-5.5 21.2 0.5c20.1 21.1 47.1 35.5 76.1 40.5 8.2 1.4 13.6 9.2 12.2 17.3-1.2 7.3-7.5 12.4-14.7 12.4zM280.5 708.6c-11.9 0-23.8-1.3-35.5-3.8-8.1-1.8-13.2-9.8-11.5-17.9s9.8-13.2 17.9-11.5c25.5 5.6 52 3.7 76.7-5.4 7.8-2.9 16.4 1.1 19.3 8.9 2.9 7.8-1.1 16.4-8.9 19.3-18.7 6.9-38.3 10.4-58 10.4zM307 805.5c-5.7 0-11.2-3.3-13.7-8.8-3.4-7.6 0-16.4 7.5-19.8 15.8-7.1 30.1-18 41.2-31.4 5.3-6.4 14.8-7.2 21.1-1.9 6.4 5.3 7.2 14.8 1.9 21.1-14 16.9-32 30.6-52 39.6-1.8 0.7-3.9 1.2-6 1.2zM259 440h-76c-8.3 0-15-6.7-15-15s6.7-15 15-15h76c8.3 0 15 6.7 15 15s-6.7 15-15 15zM228 495h-76c-8.3 0-15-6.7-15-15s6.7-15 15-15h76c8.3 0 15 6.7 15 15s-6.7 15-15 15zM197 550h-76c-8.3 0-15-6.7-15-15s6.7-15 15-15h76c8.3 0 15 6.7 15 15s-6.7 15-15 15zM187 605h-76c-8.3 0-15-6.7-15-15s6.7-15 15-15h76c8.3 0 15 6.7 15 15s-6.7 15-15 15zM187 660h-76c-8.3 0-15-6.7-15-15s6.7-15 15-15h76c8.3 0 15 6.7 15 15s-6.7 15-15 15zM197 715h-76c-8.3 0-15-6.7-15-15s6.7-15 15-15h76c8.3 0 15 6.7 15 15s-6.7 15-15 15zM227 770h-76c-8.3 0-15-6.7-15-15s6.7-15 15-15h76c8.3 0 15 6.7 15 15s-6.7 15-15 15z" p-id="1792"></path></svg>